<svg width="28" height="33" viewBox="0 0 28 33" fill="none" xmlns="http://www.w3.org/2000/svg">
<g clip-path="url(#clip0_91_161)">
<path d="M12.6916 32.1062C9.03097 27.9859 0.889282 17.9997 0.889282 12.3905C0.889282 5.58493 6.91736 0.0681152 14.3536 0.0681152C21.787 0.0681152 27.8179 5.58493 27.8179 12.3905C27.8179 17.9997 19.6131 27.9859 16.0156 32.1062C15.153 33.0881 13.5541 33.0881 12.6916 32.1062ZM14.3536 16.4979C16.829 16.4979 18.8417 14.656 18.8417 12.3905C18.8417 10.1249 16.829 8.28301 14.3536 8.28301C11.8781 8.28301 9.86547 10.1249 9.86547 12.3905C9.86547 14.656 11.8781 16.4979 14.3536 16.4979Z" fill="#0284C7"/>
</g>
<defs>
<clipPath id="clip0_91_161">
<rect width="26.9286" height="32.8596" fill="white" transform="translate(0.889282 0.0681152)"/>
</clipPath>
</defs>
</svg>
