<svg width="19" height="18" viewBox="0 0 19 18" fill="none" xmlns="http://www.w3.org/2000/svg">
<path d="M18.64 6.19844C18.7848 6.06523 19 6.18984 19 6.40039V15.1875C19 16.3262 18.2021 17.25 17.2188 17.25H1.78125C0.797852 17.25 0 16.3262 0 15.1875V6.40469C0 6.18984 0.211523 6.06953 0.359961 6.20273C1.19121 6.95039 2.29336 7.9 6.07852 11.084C6.86152 11.7457 8.18262 13.1379 9.5 13.1293C10.8248 13.1422 12.1719 11.7199 12.9252 11.084C16.7104 7.9 17.8088 6.94609 18.64 6.19844ZM9.5 11.75C10.3609 11.7672 11.6004 10.4953 12.2238 9.97109C17.1482 5.8332 17.523 5.47227 18.6586 4.44102C18.8738 4.24766 19 3.94688 19 3.62891V2.8125C19 1.67383 18.2021 0.75 17.2188 0.75H1.78125C0.797852 0.75 0 1.67383 0 2.8125V3.62891C0 3.94688 0.126172 4.24336 0.341406 4.44102C1.47695 5.46797 1.85176 5.8332 6.77617 9.97109C7.39961 10.4953 8.63906 11.7672 9.5 11.75Z" fill="#0284C7"/>
</svg>
