<svg width="27" height="25" viewBox="0 0 27 25" fill="none" xmlns="http://www.w3.org/2000/svg">
<path d="M13.6804 0.800049C6.61529 0.800049 0.889282 6.17478 0.889282 12.8064C0.889282 19.4381 6.61529 24.8128 13.6804 24.8128C20.7454 24.8128 26.4714 19.4381 26.4714 12.8064C26.4714 6.17478 20.7454 0.800049 13.6804 0.800049ZM12.4812 7.92884C12.4812 7.30976 13.0208 6.80324 13.6804 6.80324C14.3399 6.80324 14.8795 7.30741 14.8795 7.92884V13.932C14.8795 14.5535 14.3424 15.0576 13.6804 15.0576C13.0183 15.0576 12.4812 14.5558 12.4812 13.932V7.92884ZM13.6804 19.56C12.813 19.56 12.1095 18.8997 12.1095 18.0855C12.1095 17.2713 12.8125 16.611 13.6804 16.611C14.5482 16.611 15.2513 17.2713 15.2513 18.0855C15.2493 18.8987 14.5497 19.56 13.6804 19.56Z" fill="#0284C7"/>
</svg>
