<svg width="19" height="22" viewBox="0 0 19 22" fill="none" xmlns="http://www.w3.org/2000/svg">
<path d="M16.9643 0.456055H2.03571C1.49581 0.456055 0.978017 0.693108 0.596247 1.11506C0.214476 1.53702 0 2.10932 0 2.70605L0 19.2061C0 19.8028 0.214476 20.3751 0.596247 20.797C0.978017 21.219 1.49581 21.4561 2.03571 21.4561H16.9643C17.5042 21.4561 18.022 21.219 18.4038 20.797C18.7855 20.3751 19 19.8028 19 19.2061V2.70605C19 2.10932 18.7855 1.53702 18.4038 1.11506C18.022 0.693108 17.5042 0.456055 16.9643 0.456055ZM16.2692 14.864L15.633 17.9109C15.6007 18.0658 15.5218 18.204 15.4093 18.303C15.2968 18.402 15.1572 18.456 15.0134 18.4561C8.22768 18.4561 2.71429 12.3759 2.71429 4.8623C2.71933 4.70483 2.76998 4.5533 2.85877 4.43002C2.94756 4.30674 3.06981 4.21821 3.20752 4.17746L5.96422 3.47434C6.01124 3.46335 6.05909 3.45723 6.10714 3.45605C6.23016 3.46292 6.34928 3.50605 6.45212 3.58098C6.55496 3.65591 6.63778 3.7599 6.69199 3.88215L7.96431 7.1634C7.99547 7.25187 8.01282 7.34554 8.01562 7.44043C8.00527 7.64857 7.92153 7.84395 7.78237 7.98465L6.17542 9.43777C7.1491 11.7187 8.81001 13.5544 10.8737 14.6306L12.1884 12.8545C12.3157 12.7007 12.4925 12.6081 12.6808 12.5967C12.7667 12.5997 12.8514 12.6189 12.9315 12.6534L15.9002 14.0596C16.0109 14.1195 16.105 14.211 16.1728 14.3247C16.2406 14.4384 16.2796 14.5701 16.2857 14.7061C16.2849 14.7592 16.2793 14.8121 16.2692 14.864Z" fill="#0284C7"/>
</svg>
